<svg width="512" height="512" viewBox="0 0 512 512" fill="none" xmlns="http://www.w3.org/2000/svg">
<style>
    /* Standard (Light-Theme): Zeige das dunkle Icon, verstecke das helle */
    .icon-dark {
      display: block;
    }
    .icon-light {
      display: none;
    }

    /* Wenn das System im Dark-Mode ist, kehre die Sichtbarkeit um */
    @media (prefers-color-scheme: dark) {
      .icon-dark {
        display: none;
      }
      .icon-light {
        display: block;
      }
    }
  </style>
<g class="icon-light">
<path d="M422.062 375.5C404.662 375.5 389.362 372 376.162 365C362.962 357.9 352.662 347.95 345.262 335.15C337.862 322.35 334.162 307.3 334.162 290L333 155H369.447L375.562 289.7C375.562 296.8 376.762 303.25 379.162 309.05C381.562 314.85 384.862 319.85 389.062 324.05C393.362 328.25 398.312 331.5 403.912 333.8C409.612 336 415.662 337.1 422.062 337.1C428.662 337.1 434.762 335.95 440.362 333.65C446.062 331.35 451.012 328.1 455.212 323.9C459.412 319.7 462.662 314.7 464.962 308.9C467.362 303.1 468.562 296.7 468.562 289.7V155H509.962V290C509.962 307.3 506.262 322.35 498.862 335.15C491.462 347.95 481.162 357.9 467.962 365C454.762 372 439.462 375.5 422.062 375.5Z" fill="#E0E0E0"/>
<path d="M153.447 371V155H190.047L261.447 298.4L332.847 155H369.447L375.562 289.7L376.162 365C376.162 365 339.691 346.5 335.549 307.5C331.406 268.5 331.347 242 331.347 242L268.647 371H254.247L191.547 242V371H153.447Z" fill="#E0E0E0"/>
<path d="M73.8176 371V283.1L0.0175781 155H47.7176L94.5176 236.3L153.447 155H190.047L115.218 283.1V371H73.8176Z" fill="#E0E0E0"/>
</g>
<g class="icon-dark">
    <path d="M422.062 375.5C404.662 375.5 389.362 372 376.162 365C362.962 357.9 352.662 347.95 345.262 335.15C337.862 322.35 334.162 307.3 334.162 290L333 155H369.447L375.562 289.7C375.562 296.8 376.762 303.25 379.162 309.05C381.562 314.85 384.862 319.85 389.062 324.05C393.362 328.25 398.312 331.5 403.912 333.8C409.612 336 415.662 337.1 422.062 337.1C428.662 337.1 434.762 335.95 440.362 333.65C446.062 331.35 451.012 328.1 455.212 323.9C459.412 319.7 462.662 314.7 464.962 308.9C467.362 303.1 468.562 296.7 468.562 289.7V155H509.962V290C509.962 307.3 506.262 322.35 498.862 335.15C491.462 347.95 481.162 357.9 467.962 365C454.762 372 439.462 375.5 422.062 375.5Z" fill="#121212"/>
    <path d="M153.447 371V155H190.047L261.447 298.4L332.847 155H369.447L375.562 289.7L376.162 365C376.162 365 339.691 346.5 335.549 307.5C331.406 268.5 331.347 242 331.347 242L268.647 371H254.247L191.547 242V371H153.447Z" fill="#121212"/>
    <path d="M73.8176 371V283.1L0.0175781 155H47.7176L94.5176 236.3L153.447 155H190.047L115.218 283.1V371H73.8176Z" fill="#121212"/>
</g>
</svg>
